# xmcd
#
# Track frame offsets:
#	150
#	14397
#	28387
#	42125
#	54900
#	72050
#	88325
#	105425
#	121625
#	131762
#	146225
#	159275
#	171262
#	187725
#
# Disc length: 2739
#
# Revision: 4
# Processed by: cddbd v1.5.1PL0 Copyright (c) Steve Scherf et al.
# Submitted via: FreeRIP 2.00 
# Normalized: r2:TDELIM( - );r3:TSWAP
#
DISCID=b50ab10e
DTITLE=Various Artist - Australias Favourite Dances Volume 6
DYEAR=1997
DGENRE=Country
TTITLE0=wade hayes - on a good night
TTITLE1=scooter lee - high test love
TTITLE2=rodney crowell - talking to a stranger
TTITLE3=asleep at the wheel - bring it on down to my house
TTITLE4=ian tyson - own hearts delight
TTITLE5=hansel martinez - love potion no #9
TTITLE6=kimber clayton - jose cuervo (tequila mix) 97
TTITLE7=boz scaggs - fly like a bird
TTITLE8=ken mellons - rub-a-dubbin
TTITLE9=rick trevino - un momento alla
TTITLE10=deryle dodd - 13 mwz
TTITLE11=perfect stranger - i ain't never
TTITLE12=delbert mcclinton - i wanna thank you baby
TTITLE13=wynonna judd - on-one else on earth
EXTD=
EXTT0=
EXTT1=
EXTT2=
EXTT3=
EXTT4=
EXTT5=
EXTT6=
EXTT7=
EXTT8=
EXTT9=
EXTT10=
EXTT11=
EXTT12=
EXTT13=
PLAYORDER=
